<?xml version="1.0" standalone="no"?><!DOCTYPE svg PUBLIC "-//W3C//DTD SVG 1.1//EN" "http://www.w3.org/Graphics/SVG/1.1/DTD/svg11.dtd"><svg t="1563175794582" class="icon" viewBox="0 0 1024 1024" version="1.1" xmlns="http://www.w3.org/2000/svg" p-id="3559" xmlns:xlink="http://www.w3.org/1999/xlink" width="200" height="200"><defs><style type="text/css"></style></defs><path d="M864 294.4h-390.4c-70.4 0-121.6-57.6-121.6-121.6 0-70.4 57.6-121.6 121.6-121.6h390.4c70.4 0 121.6 57.6 121.6 121.6 0 70.4-51.2 121.6-121.6 121.6z m-390.4-185.6c-38.4 0-64 32-64 64 0 38.4 32 64 64 64h390.4c38.4 0 64-32 64-64 0-38.4-32-64-64-64h-390.4zM864 972.8h-390.4c-70.4 0-121.6-57.6-121.6-121.6 0-70.4 57.6-121.6 121.6-121.6h390.4c70.4 0 121.6 57.6 121.6 121.6 0 64-51.2 121.6-121.6 121.6z m-390.4-185.6c-38.4 0-64 32-64 64 0 38.4 32 64 64 64h390.4c38.4 0 64-32 64-64 0-38.4-32-64-64-64h-390.4zM864 640h-390.4c-70.4 0-121.6-57.6-121.6-121.6 0-70.4 57.6-121.6 121.6-121.6h390.4c70.4 0 121.6 57.6 121.6 121.6 0 70.4-51.2 121.6-121.6 121.6z m-390.4-185.6c-38.4 0-64 32-64 64 0 38.4 32 64 64 64h390.4c38.4 0 64-32 64-64 0-38.4-32-64-64-64h-390.4z" fill="" p-id="3560"></path><path d="M172.8 294.4h-12.8c-70.4 0-121.6-57.6-121.6-121.6 0-70.4 57.6-121.6 121.6-121.6h12.8c70.4 0 121.6 57.6 121.6 121.6 0 70.4-51.2 121.6-121.6 121.6z m-12.8-185.6c-38.4 0-64 32-64 64 0 38.4 32 64 64 64h12.8c38.4 0 64-32 64-64 0-38.4-32-64-64-64h-12.8zM172.8 972.8h-12.8c-70.4 0-121.6-57.6-121.6-121.6 0-70.4 57.6-121.6 121.6-121.6h12.8c70.4 0 121.6 57.6 121.6 121.6 0 64-51.2 121.6-121.6 121.6z m-12.8-185.6c-38.4 0-64 32-64 64 0 38.4 32 64 64 64h12.8c38.4 0 64-32 64-64 0-38.4-32-64-64-64h-12.8zM172.8 640h-12.8c-70.4 0-121.6-57.6-121.6-121.6 0-70.4 57.6-121.6 121.6-121.6h12.8c70.4 0 121.6 57.6 121.6 121.6 0 70.4-51.2 121.6-121.6 121.6z m-12.8-185.6c-38.4 0-64 32-64 64 0 38.4 32 64 64 64h12.8c38.4 0 64-32 64-64 0-38.4-32-64-64-64h-12.8z" fill="" p-id="3561"></path></svg>