<?xml version="1.0" standalone="no"?><!DOCTYPE svg PUBLIC "-//W3C//DTD SVG 1.1//EN" "http://www.w3.org/Graphics/SVG/1.1/DTD/svg11.dtd"><svg t="1563175741241" class="icon" viewBox="0 0 1024 1024" version="1.1" xmlns="http://www.w3.org/2000/svg" p-id="2824" xmlns:xlink="http://www.w3.org/1999/xlink" width="200" height="200"><defs><style type="text/css"></style></defs><path d="M1015.183908 467.24408l-152.303464-141.425898V94.126032h-175.444608v68.791831L511.991228 0 8.816092 467.24408a17.562005 17.562005 0 0 0 23.895555 25.72018l58.230066-54.072028v585.090224h842.134119v-585.107769l58.230065 54.072029a17.456739 17.456739 0 0 0 11.947778 4.684371 17.544461 17.544461 0 0 0 11.930233-30.387007zM722.524758 129.214954h105.266764v164.023164l-105.266764-97.740191V129.214954z m-315.800295 859.67858V619.354556c0-9.070486 7.368674-16.43916 16.43916-16.43916h177.65521c9.070486 0 16.43916 7.368674 16.43916 16.43916v369.538978h-210.53353z m491.244903 0h-245.622452V619.354556a51.580715 51.580715 0 0 0-51.528081-51.528082H423.163623a51.580715 51.580715 0 0 0-51.528082 51.528082v369.538978h-245.622451V406.294624l385.978138-358.41579 250.5349 232.63955 100.354316 93.178631 35.088922 32.580064v582.616455z" fill="" p-id="2825"></path></svg>